<?xml version="1.0" encoding="utf-8"?>
<!-- Generator: Adobe Illustrator 22.0.1, SVG Export Plug-In . SVG Version: 6.00 Build 0)  -->
<svg version="1.1" id="Layer_1" xmlns="http://www.w3.org/2000/svg" xmlns:xlink="http://www.w3.org/1999/xlink" x="0px" y="0px"
	 viewBox="0 0 716.2 122.6" style="enable-background:new 0 0 716.2 122.6;" xml:space="preserve">
<style type="text/css">
	.st0{fill:#293F1F;}
	.st1{fill:#F2EB20;}
	.st2{fill:#27340C;}
	.st3{fill:#325016;}
	.st4{clip-path:url(#SVGID_2_);fill:#F2F63D;}
	.st5{fill:none;stroke:#4C6D17;stroke-width:0.5202;stroke-miterlimit:10;stroke-dasharray:2.0854,2.0854;}
	.st6{clip-path:url(#SVGID_4_);fill:#4C6D17;}
	.st7{opacity:0.37;}
	.st8{fill:#1C2C0C;}
	.st9{clip-path:url(#SVGID_6_);fill:#F2F63D;}
	.st10{clip-path:url(#SVGID_8_);fill:#F2F63D;}
</style>
<g>
	<g>
		<g>
			<path class="st0" d="M303.7,0.7c11.8,15.6,20,26,24.3,31.1c9.5-12.3,18.1-22.2,25.7-29.7c12.4,8.9,22.4,17.4,30,25.5
				c-12.4,13.6-23.3,24.6-32.6,33.2l28.6,29.8c-9.7,11.2-20,21.3-30.9,30.3c-7.7-10.3-15.6-20.3-23.5-30.2l-22.5,30.5
				c-9.2-6.4-19.3-15.3-30.2-26.8c5.8-8.3,15.4-19.7,29-34.2c-9.4-12.3-19.1-23.2-29-32.6C281.2,18.1,291.6,9.2,303.7,0.7z"/>
		</g>
	</g>
	<g>
		<g>
			<circle class="st1" cx="326.2" cy="59.2" r="46.4"/>
			<circle class="st2" cx="326.2" cy="59.2" r="39.2"/>
			<circle class="st3" cx="326.2" cy="59.2" r="35.9"/>
			<g>
				<defs>
					<circle id="SVGID_1_" cx="326.2" cy="59.2" r="46.4"/>
				</defs>
				<clipPath id="SVGID_2_">
					<use xlink:href="#SVGID_1_"  style="overflow:visible;"/>
				</clipPath>
				<polygon class="st4" points="334.2,13.5 284.8,97.2 291.3,98.5 294.2,94.6 343,12.8 336.1,10.5 				"/>
				<polygon class="st4" points="344.9,12.8 287.4,109.3 307.7,108.6 308,103 357.3,19.7 				"/>
				<polygon class="st4" points="360.5,19.9 356.6,23.3 304.4,112 311.1,112 312.7,104.9 363.3,19.9 				"/>
			</g>
			<g>
				<circle class="st5" cx="326.2" cy="59.2" r="42.5"/>
			</g>
			<g>
				<defs>
					<circle id="SVGID_3_" cx="326.2" cy="59.2" r="39.2"/>
				</defs>
				<clipPath id="SVGID_4_">
					<use xlink:href="#SVGID_3_"  style="overflow:visible;"/>
				</clipPath>
				<polygon class="st6" points="334.2,13.5 284.8,97.2 291.3,98.5 294.2,94.6 343,12.8 336.1,10.5 				"/>
				<polygon class="st6" points="344.9,12.8 287.4,109.3 307.7,108.6 308,103 357.3,19.7 				"/>
				<polygon class="st6" points="360.5,19.9 356.6,23.3 304.4,112 311.1,112 312.7,104.9 363.3,19.9 				"/>
			</g>
			<g class="st7">
				<path class="st8" d="M344.3,62.5l3.7,2.1c0,0,3.2-14.6-7.6-25.4s-25.3-11.4-36.4-4.4l9.6,11.3c0,0,5.3-4,13.6-2.7
					c8.3,1.3,12.2,6.7,14.2,9.5C343.2,55.6,344.3,62.5,344.3,62.5z"/>
				<path class="st8" d="M340.9,61l-10.7,7.6v11.3l-14.4,12V69.4l3.5-1.9l2.3-6.4l-9.3,5.5v5.2l-4.7,4.7V64.6c0,0,0-7.3,2.9-11.4
					c2.6-3.8,7.2-7.3,14.2-7.3s11.9,4.3,13,5.8C338.8,53.3,340.8,56.1,340.9,61z"/>
			</g>
			<g>
				<path class="st1" d="M346.5,62.5l3.7,2.1c0,0,3.2-14.6-7.6-25.4c-10.7-10.8-25.3-11.4-36.4-4.4l9.6,11.3c0,0,5.3-4,13.6-2.7
					c8.3,1.3,12.2,6.7,14.2,9.5C345.3,55.6,346.5,62.5,346.5,62.5z"/>
				<path class="st1" d="M343,61l-10.7,7.6v11.3l-14.4,12V69.4l3.5-1.9l2.3-6.4l-9.3,5.5v5.2l-4.7,4.7V64.6c0,0,0-7.3,2.9-11.4
					c2.6-3.8,7.2-7.3,14.2-7.3c7,0,11.9,4.3,13,5.8C340.9,53.3,343,56.1,343,61z"/>
			</g>
			<g>
				<defs>
					<path id="SVGID_5_" d="M346.5,62.5l3.7,2.1c0,0,3.2-14.6-7.6-25.4c-10.7-10.8-25.3-11.4-36.4-4.4l9.6,11.3c0,0,5.3-4,13.6-2.7
						c8.3,1.3,12.2,6.7,14.2,9.5C345.3,55.6,346.5,62.5,346.5,62.5z"/>
				</defs>
				<clipPath id="SVGID_6_">
					<use xlink:href="#SVGID_5_"  style="overflow:visible;"/>
				</clipPath>
				<polygon class="st9" points="334.2,13.5 284.8,97.2 291.3,98.5 294.2,94.6 343,12.8 336.1,10.5 				"/>
				<polygon class="st9" points="344.9,12.8 287.4,109.3 307.7,108.6 308,103 357.3,19.7 				"/>
				<polygon class="st9" points="360.5,19.9 356.6,23.3 304.4,112 311.1,112 312.7,104.9 363.3,19.9 				"/>
			</g>
			<g>
				<defs>
					<path id="SVGID_7_" d="M343,61l-10.7,7.6v11.3l-14.4,12V69.4l3.5-1.9l2.3-6.4l-9.3,5.5v5.2l-4.7,4.7V64.6c0,0,0-7.3,2.9-11.4
						c2.6-3.8,7.2-7.3,14.2-7.3c7,0,11.9,4.3,13,5.8C340.9,53.3,343,56.1,343,61z"/>
				</defs>
				<clipPath id="SVGID_8_">
					<use xlink:href="#SVGID_7_"  style="overflow:visible;"/>
				</clipPath>
				<polygon class="st10" points="334.2,13.5 284.8,97.2 291.3,98.5 294.2,94.6 343,12.8 336.1,10.5 				"/>
				<polygon class="st10" points="344.9,12.8 287.4,109.3 307.7,108.6 308,103 357.3,19.7 				"/>
				<polygon class="st10" points="360.5,19.9 356.6,23.3 304.4,112 311.1,112 312.7,104.9 363.3,19.9 				"/>
			</g>
		</g>
	</g>
	<g>
		<path class="st0" d="M39.5,93.8l0.3-3c-17.3,3.8-29.3-1.3-35.9-15.4c-5.5-13.7-3.2-26.9,6.7-39.6C21,25.3,36.4,21.8,56.7,25.3
			c0.6,8.4,0.5,16.2-0.3,23.3c-5-1.6-11.2-2.1-18.6-1.4c-7,1.5-11.4,4.6-13.1,9.3c-1.5,7.9,0.3,13.1,5.6,15.6c5,0.9,8.7,0.2,11.1-2
			c-1.3-0.2-3.4-0.2-6.3,0.2L35,57.4c12.1-0.1,20.2-0.2,24.1-0.5c0.1,13.6-0.1,25.8-0.5,36.4C54.4,93.8,48,94,39.5,93.8z"/>
		<path class="st0" d="M75.6,24.6c11.2,0.5,21.4,0.5,30.5,0l17.6,67.8c-5.7-0.1-12.8,0.6-21.2,1.9L99.3,80
			c-4.3-0.4-8.1-0.4-11.5-0.1c-2,6-3.4,10.7-4.2,14c-6.6-1.1-13.6-1.9-21-2.5l15.3-48.5L71,42.4L75.6,24.6z M93.4,53.1
			c-0.9,2.5-1.7,5.8-2.5,9.8c1.5-0.1,2.9-0.1,4.4-0.3C95,59.3,94.3,56.1,93.4,53.1z"/>
		<path class="st0" d="M129.9,49.1l1.8-23.3c13.3-0.6,23.3-1.2,29.9-1.6c3.2,4.7,6.4,9.1,9.6,13c3.2-3.8,6.3-8,9.2-12.8
			c6.4,0.4,13.8,0.7,22,0.9c3.6,35.2,5.7,57.2,6.3,66.2c-6.4,1.3-13.9,2.1-22.5,2.6c-0.8-9.1-1.6-19.3-2.4-30.6L170,76.3
			c-4.7-4.8-8.6-8.9-11.7-12.5c-0.8,11.7-1.4,21.8-1.8,30.1L132.9,93l3.4-43.3L129.9,49.1z"/>
		<path class="st0" d="M264.4,24.7c-0.7,8.3-1.1,15.3-1,21l-25.2,0.2l0.2,5.7l17.6-0.5l0.5,16.2c-4.5,0.4-10.3,0.7-17.5,0.9l0.1,5
			c7.5,0,15.8-0.2,24.9-0.8c0.2,8.6,0.6,15.3,1,20.2c-8.9,0.2-25,0.6-48.3,1.1c0.3-18.5,0.3-34.4,0-47.6l-5.7,0.1l-0.5-20.7
			C220.6,25.4,238.6,25.2,264.4,24.7z"/>
	</g>
	<g>
		<path class="st0" d="M400.2,24.6c11.2,0.5,21.4,0.5,30.5,0l17.6,67.8c-5.7-0.1-12.8,0.6-21.2,1.9L423.9,80
			c-4.3-0.4-8.1-0.4-11.5-0.1c-2,6-3.4,10.7-4.2,14c-6.6-1.1-13.6-1.9-21-2.5l15.3-48.5l-6.9-0.5L400.2,24.6z M418,53.1
			c-0.9,2.5-1.7,5.8-2.5,9.8c1.5-0.1,2.9-0.1,4.4-0.3C419.5,59.3,418.9,56.1,418,53.1z"/>
		<path class="st0" d="M454.7,48.6c0.5-8.2,0.9-15.2,1.1-21c12.8-3,24.3-4.1,34.4-3.3c5.3,0.7,10.1,2.5,14.5,5.4
			c4.5,3,7.5,6.3,8.8,9.9c2.8,10.7-1.5,20.2-12.8,28.6c4.7,5.6,9.1,10,13.2,13.2l-17,15.6l-14-19.2c-0.1,5.8-0.1,11.1-0.1,15.9
			c-9.6,0.5-16.8,0.3-21.6-0.4c-0.1-6.9,0.1-22.2,0.7-45.8L454.7,48.6z M483.1,44.8c-0.3,3.6-0.3,7.4-0.1,11.5l3.6-1.1
			c4.2-2,6.3-4.3,6.2-6.8c-0.1-2.1-1.1-3.3-3.2-3.6C488,44.3,485.8,44.3,483.1,44.8z"/>
		<path class="st0" d="M575.2,24.7c-0.7,8.3-1.1,15.3-1,21L549,45.9l0.2,5.7l17.6-0.5l0.5,16.2c-4.5,0.4-10.3,0.7-17.5,0.9l0.1,5
			c7.5,0,15.8-0.2,24.9-0.8c0.2,8.6,0.6,15.3,1,20.2c-8.9,0.2-25,0.6-48.3,1.1c0.3-18.5,0.3-34.4,0-47.6l-5.7,0.1l-0.5-20.7
			C531.5,25.4,549.4,25.2,575.2,24.7z"/>
		<path class="st0" d="M585.2,26.2l24.8-2.6c4.1,7.5,10.2,15.6,18.3,24.3c-0.2-4.3-0.5-11.7-0.8-22.3c8.2-0.3,15.9-0.8,23.1-1.6
			c0,26.1-0.2,49.3-0.6,69.4c-4.1,0-9.3,0.1-15.5,0.4c-6-8.4-13.3-17.5-22-27l0.3,27c-7-0.3-14.1-0.2-21.2,0.2
			c0.4-13.5,0.5-29,0.2-46.6l-7.1,0.6L585.2,26.2z"/>
		<path class="st0" d="M667.1,24.6c11.2,0.5,21.4,0.5,30.5,0l17.6,67.8c-5.7-0.1-12.8,0.6-21.2,1.9L690.8,80
			c-4.3-0.4-8.1-0.4-11.5-0.1c-2,6-3.4,10.7-4.2,14c-6.6-1.1-13.6-1.9-21-2.5l15.3-48.5l-6.9-0.5L667.1,24.6z M684.9,53.1
			c-0.9,2.5-1.7,5.8-2.5,9.8c1.5-0.1,2.9-0.1,4.4-0.3C686.4,59.3,685.8,56.1,684.9,53.1z"/>
	</g>
</g>
</svg>
