<?xml version="1.0" encoding="utf-8"?>
<!-- Generator: Adobe Illustrator 21.1.0, SVG Export Plug-In . SVG Version: 6.00 Build 0)  -->
<svg version="1.1" id="Layer_1" xmlns="http://www.w3.org/2000/svg" xmlns:xlink="http://www.w3.org/1999/xlink" x="0px" y="0px"
	 viewBox="0 0 714.2 120.5" style="enable-background:new 0 0 714.2 120.5;" xml:space="preserve">
<style type="text/css">
	.st0{fill:#FFFFFF;}
	.st1{fill:#F1EA22;}
	.st2{fill:#2A3519;}
	.st3{fill:#365125;}
	.st4{clip-path:url(#SVGID_2_);fill:#EDE949;}
	.st5{clip-path:url(#SVGID_4_);fill:#EDE949;}
	.st6{clip-path:url(#SVGID_6_);fill:#EDE949;}
	.st7{fill:none;stroke:#4D6E33;stroke-width:0.5202;stroke-miterlimit:10;stroke-dasharray:2.0854,2.0854;}
	.st8{clip-path:url(#SVGID_8_);fill:#4D6E33;}
	.st9{clip-path:url(#SVGID_10_);fill:#4D6E33;}
	.st10{clip-path:url(#SVGID_12_);fill:#4D6E33;}
	.st11{opacity:0.37;}
	.st12{fill:#212D17;}
	.st13{clip-path:url(#SVGID_14_);fill:#EDE949;}
	.st14{clip-path:url(#SVGID_16_);fill:#EDE949;}
	.st15{clip-path:url(#SVGID_18_);fill:#EDE949;}
	.st16{clip-path:url(#SVGID_20_);fill:#EDE949;}
	.st17{clip-path:url(#SVGID_22_);fill:#EDE949;}
	.st18{clip-path:url(#SVGID_24_);fill:#EDE949;}
</style>
<g>
	<g>
		<g>
			<path class="st0" d="M302.7,0c11.8,15.6,20,26,24.3,31.1c9.5-12.3,18.1-22.2,25.7-29.7c12.4,8.9,22.4,17.4,30,25.5
				c-12.4,13.6-23.3,24.6-32.6,33.2l28.6,29.8c-9.7,11.2-20,21.3-30.9,30.3c-7.7-10.3-15.6-20.3-23.5-30.2l-22.5,30.5
				c-9.2-6.4-19.3-15.3-30.2-26.8c5.8-8.3,15.4-19.7,29-34.2c-9.4-12.3-19.1-23.2-29-32.6C280.2,17.4,290.6,8.5,302.7,0z"/>
		</g>
	</g>
	<g>
		<g>
			<circle class="st1" cx="325.2" cy="58.5" r="46.4"/>
			<circle class="st2" cx="325.2" cy="58.5" r="39.2"/>
			<circle class="st3" cx="325.2" cy="58.5" r="35.9"/>
			<g>
				<g>
					<defs>
						<circle id="SVGID_1_" cx="325.2" cy="58.5" r="46.4"/>
					</defs>
					<clipPath id="SVGID_2_">
						<use xlink:href="#SVGID_1_"  style="overflow:visible;"/>
					</clipPath>
					<polygon class="st4" points="333.2,12.8 283.8,96.5 290.3,97.8 293.2,93.9 342,12.1 335.1,9.8 					"/>
				</g>
				<g>
					<defs>
						<circle id="SVGID_3_" cx="325.2" cy="58.5" r="46.4"/>
					</defs>
					<clipPath id="SVGID_4_">
						<use xlink:href="#SVGID_3_"  style="overflow:visible;"/>
					</clipPath>
					<polygon class="st5" points="343.9,12.1 286.4,108.6 306.7,107.9 307,102.3 356.3,19 					"/>
				</g>
				<g>
					<defs>
						<circle id="SVGID_5_" cx="325.2" cy="58.5" r="46.4"/>
					</defs>
					<clipPath id="SVGID_6_">
						<use xlink:href="#SVGID_5_"  style="overflow:visible;"/>
					</clipPath>
					<polygon class="st6" points="359.5,19.2 355.6,22.6 303.4,111.3 310.1,111.3 311.7,104.2 362.3,19.2 					"/>
				</g>
			</g>
			<g>
				<circle class="st7" cx="325.2" cy="58.5" r="42.5"/>
			</g>
			<g>
				<g>
					<defs>
						<circle id="SVGID_7_" cx="325.2" cy="58.5" r="39.2"/>
					</defs>
					<clipPath id="SVGID_8_">
						<use xlink:href="#SVGID_7_"  style="overflow:visible;"/>
					</clipPath>
					<polygon class="st8" points="333.2,12.8 283.8,96.5 290.3,97.8 293.2,93.9 342,12.1 335.1,9.8 					"/>
				</g>
				<g>
					<defs>
						<circle id="SVGID_9_" cx="325.2" cy="58.5" r="39.2"/>
					</defs>
					<clipPath id="SVGID_10_">
						<use xlink:href="#SVGID_9_"  style="overflow:visible;"/>
					</clipPath>
					<polygon class="st9" points="343.9,12.1 286.4,108.6 306.7,107.9 307,102.3 356.3,19 					"/>
				</g>
				<g>
					<defs>
						<circle id="SVGID_11_" cx="325.2" cy="58.5" r="39.2"/>
					</defs>
					<clipPath id="SVGID_12_">
						<use xlink:href="#SVGID_11_"  style="overflow:visible;"/>
					</clipPath>
					<polygon class="st10" points="359.5,19.2 355.6,22.6 303.4,111.3 310.1,111.3 311.7,104.2 362.3,19.2 					"/>
				</g>
			</g>
			<g class="st11">
				<path class="st12" d="M343.3,61.8l3.7,2.1c0,0,3.2-14.6-7.6-25.4s-25.3-11.4-36.4-4.4l9.6,11.3c0,0,5.3-4,13.6-2.7
					c8.3,1.3,12.2,6.7,14.2,9.5C342.2,54.9,343.3,61.8,343.3,61.8z"/>
				<path class="st12" d="M339.9,60.3l-10.7,7.6v11.3l-14.4,12V68.7l3.5-1.9l2.3-6.4l-9.3,5.5v5.2l-4.7,4.7V63.9c0,0,0-7.3,2.9-11.4
					c2.6-3.8,7.2-7.3,14.2-7.3s11.9,4.3,13,5.8C337.8,52.6,339.8,55.4,339.9,60.3z"/>
			</g>
			<g>
				<path class="st1" d="M345.5,61.8l3.7,2.1c0,0,3.2-14.6-7.6-25.4c-10.7-10.8-25.3-11.4-36.4-4.4l9.6,11.3c0,0,5.3-4,13.6-2.7
					c8.3,1.3,12.2,6.7,14.2,9.5C344.3,54.9,345.5,61.8,345.5,61.8z"/>
				<path class="st1" d="M342,60.3l-10.7,7.6v11.3l-14.4,12V68.7l3.5-1.9l2.3-6.4l-9.3,5.5v5.2l-4.7,4.7V63.9c0,0,0-7.3,2.9-11.4
					c2.6-3.8,7.2-7.3,14.2-7.3s11.9,4.3,13,5.8C339.9,52.6,342,55.4,342,60.3z"/>
			</g>
			<g>
				<g>
					<defs>
						<path id="SVGID_13_" d="M345.5,61.8l3.7,2.1c0,0,3.2-14.6-7.6-25.4c-10.7-10.8-25.3-11.4-36.4-4.4l9.6,11.3
							c0,0,5.3-4,13.6-2.7c8.3,1.3,12.2,6.7,14.2,9.5C344.3,54.9,345.5,61.8,345.5,61.8z"/>
					</defs>
					<clipPath id="SVGID_14_">
						<use xlink:href="#SVGID_13_"  style="overflow:visible;"/>
					</clipPath>
					<polygon class="st13" points="333.2,12.8 283.8,96.5 290.3,97.8 293.2,93.9 342,12.1 335.1,9.8 					"/>
				</g>
				<g>
					<defs>
						<path id="SVGID_15_" d="M345.5,61.8l3.7,2.1c0,0,3.2-14.6-7.6-25.4c-10.7-10.8-25.3-11.4-36.4-4.4l9.6,11.3
							c0,0,5.3-4,13.6-2.7c8.3,1.3,12.2,6.7,14.2,9.5C344.3,54.9,345.5,61.8,345.5,61.8z"/>
					</defs>
					<clipPath id="SVGID_16_">
						<use xlink:href="#SVGID_15_"  style="overflow:visible;"/>
					</clipPath>
					<polygon class="st14" points="343.9,12.1 286.4,108.6 306.7,107.9 307,102.3 356.3,19 					"/>
				</g>
				<g>
					<defs>
						<path id="SVGID_17_" d="M345.5,61.8l3.7,2.1c0,0,3.2-14.6-7.6-25.4c-10.7-10.8-25.3-11.4-36.4-4.4l9.6,11.3
							c0,0,5.3-4,13.6-2.7c8.3,1.3,12.2,6.7,14.2,9.5C344.3,54.9,345.5,61.8,345.5,61.8z"/>
					</defs>
					<clipPath id="SVGID_18_">
						<use xlink:href="#SVGID_17_"  style="overflow:visible;"/>
					</clipPath>
					<polygon class="st15" points="359.5,19.2 355.6,22.6 303.4,111.3 310.1,111.3 311.7,104.2 362.3,19.2 					"/>
				</g>
			</g>
			<g>
				<g>
					<defs>
						<path id="SVGID_19_" d="M342,60.3l-10.7,7.6v11.3l-14.4,12V68.7l3.5-1.9l2.3-6.4l-9.3,5.5v5.2l-4.7,4.7V63.9
							c0,0,0-7.3,2.9-11.4c2.6-3.8,7.2-7.3,14.2-7.3s11.9,4.3,13,5.8C339.9,52.6,342,55.4,342,60.3z"/>
					</defs>
					<clipPath id="SVGID_20_">
						<use xlink:href="#SVGID_19_"  style="overflow:visible;"/>
					</clipPath>
					<polygon class="st16" points="333.2,12.8 283.8,96.5 290.3,97.8 293.2,93.9 342,12.1 335.1,9.8 					"/>
				</g>
				<g>
					<defs>
						<path id="SVGID_21_" d="M342,60.3l-10.7,7.6v11.3l-14.4,12V68.7l3.5-1.9l2.3-6.4l-9.3,5.5v5.2l-4.7,4.7V63.9
							c0,0,0-7.3,2.9-11.4c2.6-3.8,7.2-7.3,14.2-7.3s11.9,4.3,13,5.8C339.9,52.6,342,55.4,342,60.3z"/>
					</defs>
					<clipPath id="SVGID_22_">
						<use xlink:href="#SVGID_21_"  style="overflow:visible;"/>
					</clipPath>
					<polygon class="st17" points="343.9,12.1 286.4,108.6 306.7,107.9 307,102.3 356.3,19 					"/>
				</g>
				<g>
					<defs>
						<path id="SVGID_23_" d="M342,60.3l-10.7,7.6v11.3l-14.4,12V68.7l3.5-1.9l2.3-6.4l-9.3,5.5v5.2l-4.7,4.7V63.9
							c0,0,0-7.3,2.9-11.4c2.6-3.8,7.2-7.3,14.2-7.3s11.9,4.3,13,5.8C339.9,52.6,342,55.4,342,60.3z"/>
					</defs>
					<clipPath id="SVGID_24_">
						<use xlink:href="#SVGID_23_"  style="overflow:visible;"/>
					</clipPath>
					<polygon class="st18" points="359.5,19.2 355.6,22.6 303.4,111.3 310.1,111.3 311.7,104.2 362.3,19.2 					"/>
				</g>
			</g>
		</g>
	</g>
	<g>
		<path class="st0" d="M38.5,93.1l0.3-3C21.5,93.9,9.5,88.8,2.9,74.7C-2.6,61-0.3,47.8,9.6,35.1c10.4-10.5,25.8-14,46.1-10.5
			c0.6,8.4,0.5,16.2-0.3,23.3c-5-1.6-11.2-2.1-18.6-1.4c-7,1.5-11.4,4.6-13.1,9.3c-1.5,7.9,0.3,13.1,5.6,15.6c5,0.9,8.7,0.2,11.1-2
			c-1.3-0.2-3.4-0.2-6.3,0.2L34,56.7c12.1-0.1,20.2-0.2,24.1-0.5C58.2,69.8,58,82,57.6,92.6C53.4,93.1,47,93.3,38.5,93.1z"/>
		<path class="st0" d="M74.6,23.9c11.2,0.5,21.4,0.5,30.5,0l17.6,67.8c-5.7-0.1-12.8,0.6-21.2,1.9l-3.2-14.3
			c-4.3-0.4-8.1-0.4-11.5-0.1c-2,6-3.4,10.7-4.2,14c-6.6-1.1-13.6-1.9-21-2.5l15.3-48.5L70,41.7L74.6,23.9z M92.4,52.4
			c-0.9,2.5-1.7,5.8-2.5,9.8c1.5-0.1,2.9-0.1,4.4-0.3C94,58.6,93.3,55.4,92.4,52.4z"/>
		<path class="st0" d="M128.9,48.4l1.8-23.3c13.3-0.6,23.3-1.2,29.9-1.6c3.2,4.7,6.4,9.1,9.6,13c3.2-3.8,6.3-8,9.2-12.8
			c6.4,0.4,13.8,0.7,22,0.9c3.6,35.2,5.7,57.2,6.3,66.2c-6.4,1.3-13.9,2.1-22.5,2.6c-0.8-9.1-1.6-19.3-2.4-30.6L169,75.6
			c-4.7-4.8-8.6-8.9-11.7-12.5c-0.8,11.7-1.4,21.8-1.8,30.1l-23.6-0.9l3.4-43.3L128.9,48.4z"/>
		<path class="st0" d="M263.4,24c-0.7,8.3-1.1,15.3-1,21l-25.2,0.2l0.2,5.7l17.6-0.5l0.5,16.2c-4.5,0.4-10.3,0.7-17.5,0.9l0.1,5
			c7.5,0,15.8-0.2,24.9-0.8c0.2,8.6,0.6,15.3,1,20.2c-8.9,0.2-25,0.6-48.3,1.1c0.3-18.5,0.3-34.4,0-47.6l-5.7,0.1l-0.5-20.7
			C219.6,24.7,237.6,24.5,263.4,24z"/>
	</g>
	<g>
		<path class="st0" d="M399.2,23.9c11.2,0.5,21.4,0.5,30.5,0l17.6,67.8c-5.7-0.1-12.8,0.6-21.2,1.9l-3.2-14.3
			c-4.3-0.4-8.1-0.4-11.5-0.1c-2,6-3.4,10.7-4.2,14c-6.6-1.1-13.6-1.9-21-2.5l15.3-48.5l-6.9-0.5L399.2,23.9z M417,52.4
			c-0.9,2.5-1.7,5.8-2.5,9.8c1.5-0.1,2.9-0.1,4.4-0.3C418.5,58.6,417.9,55.4,417,52.4z"/>
		<path class="st0" d="M453.7,47.9c0.5-8.2,0.9-15.2,1.1-21c12.8-3,24.3-4.1,34.4-3.3c5.3,0.7,10.1,2.5,14.5,5.4
			c4.5,3,7.5,6.3,8.8,9.9c2.8,10.7-1.5,20.2-12.8,28.6c4.7,5.6,9.1,10,13.2,13.2l-17,15.6l-14-19.2c-0.1,5.8-0.1,11.1-0.1,15.9
			c-9.6,0.5-16.8,0.3-21.6-0.4c-0.1-6.9,0.1-22.2,0.7-45.8L453.7,47.9z M482.1,44.1c-0.3,3.6-0.3,7.4-0.1,11.5l3.6-1.1
			c4.2-2,6.3-4.3,6.2-6.8c-0.1-2.1-1.1-3.3-3.2-3.6C487,43.6,484.8,43.6,482.1,44.1z"/>
		<path class="st0" d="M574.2,24c-0.7,8.3-1.1,15.3-1,21L548,45.2l0.2,5.7l17.6-0.5l0.5,16.2c-4.5,0.4-10.3,0.7-17.5,0.9l0.1,5
			c7.5,0,15.8-0.2,24.9-0.8c0.2,8.6,0.6,15.3,1,20.2c-8.9,0.2-25,0.6-48.3,1.1c0.3-18.5,0.3-34.4,0-47.6l-5.7,0.1l-0.5-20.7
			C530.5,24.7,548.4,24.5,574.2,24z"/>
		<path class="st0" d="M584.2,25.5l24.8-2.6c4.1,7.5,10.2,15.6,18.3,24.3c-0.2-4.3-0.5-11.7-0.8-22.3c8.2-0.3,15.9-0.8,23.1-1.6
			c0,26.1-0.2,49.3-0.6,69.4c-4.1,0-9.3,0.1-15.5,0.4c-6-8.4-13.3-17.5-22-27l0.3,27c-7-0.3-14.1-0.2-21.2,0.2
			c0.4-13.5,0.5-29,0.2-46.6l-7.1,0.6L584.2,25.5z"/>
		<path class="st0" d="M666.1,23.9c11.2,0.5,21.4,0.5,30.5,0l17.6,67.8c-5.7-0.1-12.8,0.6-21.2,1.9l-3.2-14.3
			c-4.3-0.4-8.1-0.4-11.5-0.1c-2,6-3.4,10.7-4.2,14c-6.6-1.1-13.6-1.9-21-2.5l15.3-48.5l-6.9-0.5L666.1,23.9z M683.9,52.4
			c-0.9,2.5-1.7,5.8-2.5,9.8c1.5-0.1,2.9-0.1,4.4-0.3C685.4,58.6,684.8,55.4,683.9,52.4z"/>
	</g>
</g>
</svg>
