<?xml version="1.0" encoding="utf-8"?>
<!-- Generator: Adobe Illustrator 21.1.0, SVG Export Plug-In . SVG Version: 6.00 Build 0)  -->
<svg version="1.1" id="Layer_1" xmlns="http://www.w3.org/2000/svg" xmlns:xlink="http://www.w3.org/1999/xlink" x="0px" y="0px"
	 viewBox="0 0 16 16" style="enable-background:new 0 0 16 16;" xml:space="preserve">
<style type="text/css">
	.st0{fill:#D19A2A;}
	.st1{clip-path:url(#SVGID_2_);fill:#E8AA3B;}
	.st2{clip-path:url(#SVGID_4_);fill:#E8AA3B;}
	.st3{clip-path:url(#SVGID_6_);fill:#E8AA3B;}
	.st4{fill:#395024;}
	.st5{fill:#456C34;}
	.st6{clip-path:url(#SVGID_8_);fill:#60853A;}
	.st7{clip-path:url(#SVGID_10_);fill:#60853A;}
	.st8{clip-path:url(#SVGID_12_);fill:#60853A;}
	.st9{opacity:0.37;}
	.st10{fill:#1C2C0C;}
	.st11{clip-path:url(#SVGID_14_);fill:#EACA40;}
	.st12{clip-path:url(#SVGID_16_);fill:#EACA40;}
	.st13{clip-path:url(#SVGID_18_);fill:#EACA40;}
	.st14{clip-path:url(#SVGID_20_);fill:#EACA40;}
	.st15{clip-path:url(#SVGID_22_);fill:#EACA40;}
	.st16{clip-path:url(#SVGID_24_);fill:#EACA40;}
	.st17{fill:none;stroke:#F3B749;stroke-width:0.5202;stroke-miterlimit:10;stroke-dasharray:2.0451,2.0451;}
</style>
<circle class="st0" cx="8" cy="8" r="8"/>
<g>
	<g>
		<defs>
			<circle id="SVGID_1_" cx="8" cy="8" r="8"/>
		</defs>
		<clipPath id="SVGID_2_">
			<use xlink:href="#SVGID_1_"  style="overflow:visible;"/>
		</clipPath>
		<polygon class="st1" points="9.4,0.1 0.9,14.5 2,14.8 2.5,14.1 10.9,0 9.7,-0.4 		"/>
	</g>
	<g>
		<defs>
			<circle id="SVGID_3_" cx="8" cy="8" r="8"/>
		</defs>
		<clipPath id="SVGID_4_">
			<use xlink:href="#SVGID_3_"  style="overflow:visible;"/>
		</clipPath>
		<polygon class="st2" points="11.2,0 1.3,16.6 4.8,16.5 4.9,15.5 13.4,1.2 		"/>
	</g>
	<g>
		<defs>
			<circle id="SVGID_5_" cx="8" cy="8" r="8"/>
		</defs>
		<clipPath id="SVGID_6_">
			<use xlink:href="#SVGID_5_"  style="overflow:visible;"/>
		</clipPath>
		<polygon class="st3" points="13.9,1.2 13.2,1.8 4.2,17.1 5.4,17.1 5.7,15.9 14.4,1.2 		"/>
	</g>
</g>
<circle class="st4" cx="8" cy="8" r="6.8"/>
<circle class="st5" cx="8" cy="8" r="6.2"/>
<g>
	<g>
		<defs>
			<circle id="SVGID_7_" cx="8" cy="8" r="6.8"/>
		</defs>
		<clipPath id="SVGID_8_">
			<use xlink:href="#SVGID_7_"  style="overflow:visible;"/>
		</clipPath>
		<polygon class="st6" points="9.4,0.1 0.9,14.5 2,14.8 2.5,14.1 10.9,0 9.7,-0.4 		"/>
	</g>
	<g>
		<defs>
			<circle id="SVGID_9_" cx="8" cy="8" r="6.8"/>
		</defs>
		<clipPath id="SVGID_10_">
			<use xlink:href="#SVGID_9_"  style="overflow:visible;"/>
		</clipPath>
		<polygon class="st7" points="11.2,0 1.3,16.6 4.8,16.5 4.9,15.5 13.4,1.2 		"/>
	</g>
	<g>
		<defs>
			<circle id="SVGID_11_" cx="8" cy="8" r="6.8"/>
		</defs>
		<clipPath id="SVGID_12_">
			<use xlink:href="#SVGID_11_"  style="overflow:visible;"/>
		</clipPath>
		<polygon class="st8" points="13.9,1.2 13.2,1.8 4.2,17.1 5.4,17.1 5.7,15.9 14.4,1.2 		"/>
	</g>
</g>
<g class="st9">
	<path class="st10" d="M11.1,8.6L11.7,9c0,0,0.5-2.5-1.3-4.4S6,2.6,4.1,3.8l1.6,1.9c0,0,0.9-0.7,2.3-0.5s2.1,1.2,2.4,1.6
		C10.9,7.4,11.1,8.6,11.1,8.6z"/>
	<path class="st10" d="M10.5,8.3L8.7,9.6v1.9l-2.5,2.1V9.7l0.6-0.3l0.4-1.1l-1.6,1v0.9L4.8,11V8.9c0,0,0-1.3,0.5-2s1.2-1.3,2.4-1.3
		s2,0.7,2.2,1C10.2,7,10.5,7.5,10.5,8.3z"/>
</g>
<g>
	<path class="st0" d="M11.5,8.6L12.1,9c0,0,0.5-2.5-1.3-4.4s-4.4-2-6.3-0.8l1.6,1.9c0,0,0.9-0.7,2.3-0.5C10,5.5,10.6,6.4,11,6.9
		C11.3,7.4,11.5,8.6,11.5,8.6z"/>
	<path class="st0" d="M10.9,8.3L9.1,9.6v1.9l-2.5,2.1V9.7l0.6-0.3l0.4-1.1L6,9.3v0.9L5.2,11V8.9c0,0,0-1.3,0.5-2s1.2-1.3,2.4-1.3
		s2,0.7,2.2,1S10.9,7.5,10.9,8.3z"/>
</g>
<g>
	<g>
		<defs>
			<path id="SVGID_13_" d="M11.5,8.6L12.1,9c0,0,0.5-2.5-1.3-4.4s-4.4-2-6.3-0.8l1.6,1.9c0,0,0.9-0.7,2.3-0.5
				C10,5.5,10.6,6.4,11,6.9C11.3,7.4,11.5,8.6,11.5,8.6z"/>
		</defs>
		<clipPath id="SVGID_14_">
			<use xlink:href="#SVGID_13_"  style="overflow:visible;"/>
		</clipPath>
		<polygon class="st11" points="9.4,0.1 0.9,14.5 2,14.8 2.5,14.1 10.9,0 9.7,-0.4 		"/>
	</g>
	<g>
		<defs>
			<path id="SVGID_15_" d="M11.5,8.6L12.1,9c0,0,0.5-2.5-1.3-4.4s-4.4-2-6.3-0.8l1.6,1.9c0,0,0.9-0.7,2.3-0.5
				C10,5.5,10.6,6.4,11,6.9C11.3,7.4,11.5,8.6,11.5,8.6z"/>
		</defs>
		<clipPath id="SVGID_16_">
			<use xlink:href="#SVGID_15_"  style="overflow:visible;"/>
		</clipPath>
		<polygon class="st12" points="11.2,0 1.3,16.6 4.8,16.5 4.9,15.5 13.4,1.2 		"/>
	</g>
	<g>
		<defs>
			<path id="SVGID_17_" d="M11.5,8.6L12.1,9c0,0,0.5-2.5-1.3-4.4s-4.4-2-6.3-0.8l1.6,1.9c0,0,0.9-0.7,2.3-0.5
				C10,5.5,10.6,6.4,11,6.9C11.3,7.4,11.5,8.6,11.5,8.6z"/>
		</defs>
		<clipPath id="SVGID_18_">
			<use xlink:href="#SVGID_17_"  style="overflow:visible;"/>
		</clipPath>
		<polygon class="st13" points="13.9,1.2 13.2,1.8 4.2,17.1 5.4,17.1 5.7,15.9 14.4,1.2 		"/>
	</g>
</g>
<g>
	<g>
		<defs>
			<path id="SVGID_19_" d="M10.9,8.3L9.1,9.6v1.9l-2.5,2.1V9.7l0.6-0.3l0.4-1.1L6,9.3v0.9L5.2,11V8.9c0,0,0-1.3,0.5-2
				s1.2-1.3,2.4-1.3s2,0.7,2.2,1S10.9,7.5,10.9,8.3z"/>
		</defs>
		<clipPath id="SVGID_20_">
			<use xlink:href="#SVGID_19_"  style="overflow:visible;"/>
		</clipPath>
		<polygon class="st14" points="9.4,0.1 0.9,14.5 2,14.8 2.5,14.1 10.9,0 9.7,-0.4 		"/>
	</g>
	<g>
		<defs>
			<path id="SVGID_21_" d="M10.9,8.3L9.1,9.6v1.9l-2.5,2.1V9.7l0.6-0.3l0.4-1.1L6,9.3v0.9L5.2,11V8.9c0,0,0-1.3,0.5-2
				s1.2-1.3,2.4-1.3s2,0.7,2.2,1S10.9,7.5,10.9,8.3z"/>
		</defs>
		<clipPath id="SVGID_22_">
			<use xlink:href="#SVGID_21_"  style="overflow:visible;"/>
		</clipPath>
		<polygon class="st15" points="11.2,0 1.3,16.6 4.8,16.5 4.9,15.5 13.4,1.2 		"/>
	</g>
	<g>
		<defs>
			<path id="SVGID_23_" d="M10.9,8.3L9.1,9.6v1.9l-2.5,2.1V9.7l0.6-0.3l0.4-1.1L6,9.3v0.9L5.2,11V8.9c0,0,0-1.3,0.5-2
				s1.2-1.3,2.4-1.3s2,0.7,2.2,1S10.9,7.5,10.9,8.3z"/>
		</defs>
		<clipPath id="SVGID_24_">
			<use xlink:href="#SVGID_23_"  style="overflow:visible;"/>
		</clipPath>
		<polygon class="st16" points="13.9,1.2 13.2,1.8 4.2,17.1 5.4,17.1 5.7,15.9 14.4,1.2 		"/>
	</g>
</g>
<g>
	<circle class="st17" cx="8" cy="8" r="7.3"/>
</g>
</svg>
