<?xml version="1.0" encoding="utf-8"?>
<!-- Generator: Adobe Illustrator 22.0.1, SVG Export Plug-In . SVG Version: 6.00 Build 0)  -->
<svg version="1.1" id="Layer_1" xmlns="http://www.w3.org/2000/svg" xmlns:xlink="http://www.w3.org/1999/xlink" x="0px" y="0px"
	 viewBox="0 0 16 16" style="enable-background:new 0 0 16 16;" xml:space="preserve">
<style type="text/css">
	.st0{fill:#BFBFBF;}
	.st1{fill:#27340C;}
	.st2{fill:#325016;}
	.st3{clip-path:url(#SVGID_2_);fill:#CCCCCC;}
	.st4{fill:none;stroke:#D8D8D8;stroke-width:0.5202;stroke-miterlimit:10;stroke-dasharray:2.088,2.088;}
	.st5{clip-path:url(#SVGID_4_);fill:#848484;}
	.st6{opacity:0.37;}
	.st7{fill:#1C2C0C;}
	.st8{clip-path:url(#SVGID_6_);fill:#DDDDDD;}
	.st9{clip-path:url(#SVGID_8_);fill:#DDDDDD;}
</style>
<g>
	<g>
		<circle class="st0" cx="8" cy="8" r="8"/>
		<circle class="st1" cx="8" cy="8" r="6.8"/>
		<circle class="st2" cx="8" cy="8" r="6.2"/>
		<g>
			<defs>
				<circle id="SVGID_1_" cx="8" cy="8" r="8"/>
			</defs>
			<clipPath id="SVGID_2_">
				<use xlink:href="#SVGID_1_"  style="overflow:visible;"/>
			</clipPath>
			<polygon class="st3" points="9.4,0.1 0.9,14.5 2,14.8 2.5,14.1 10.9,0 9.7,-0.4 			"/>
			<polygon class="st3" points="11.2,0 1.3,16.6 4.8,16.5 4.9,15.5 13.4,1.2 			"/>
			<polygon class="st3" points="13.9,1.2 13.2,1.8 4.2,17.1 5.4,17.1 5.7,15.9 14.4,1.2 			"/>
		</g>
		<g>
			<circle class="st4" cx="8" cy="8" r="7.3"/>
		</g>
		<g>
			<defs>
				<circle id="SVGID_3_" cx="8" cy="8" r="6.8"/>
			</defs>
			<clipPath id="SVGID_4_">
				<use xlink:href="#SVGID_3_"  style="overflow:visible;"/>
			</clipPath>
			<polygon class="st5" points="9.4,0.1 0.9,14.5 2,14.8 2.5,14.1 10.9,0 9.7,-0.4 			"/>
			<polygon class="st5" points="11.2,0 1.3,16.6 4.8,16.5 4.9,15.5 13.4,1.2 			"/>
			<polygon class="st5" points="13.9,1.2 13.2,1.8 4.2,17.1 5.4,17.1 5.7,15.9 14.4,1.2 			"/>
		</g>
		<g class="st6">
			<path class="st7" d="M11.1,8.6l0.6,0.4c0,0,0.5-2.5-1.3-4.4s-4.4-2-6.3-0.8l1.6,1.9c0,0,0.9-0.7,2.3-0.5c1.4,0.2,2.1,1.2,2.4,1.6
				C10.9,7.4,11.1,8.6,11.1,8.6z"/>
			<path class="st7" d="M10.5,8.3L8.7,9.6v1.9l-2.5,2.1V9.7l0.6-0.3l0.4-1.1l-1.6,1v0.9L4.8,11V8.9c0,0,0-1.3,0.5-2
				c0.5-0.7,1.2-1.3,2.4-1.3s2,0.7,2.2,1C10.2,7,10.5,7.5,10.5,8.3z"/>
		</g>
		<g>
			<path class="st0" d="M11.5,8.6l0.6,0.4c0,0,0.5-2.5-1.3-4.4s-4.4-2-6.3-0.8l1.6,1.9c0,0,0.9-0.7,2.3-0.5C10,5.5,10.6,6.4,11,6.9
				C11.3,7.4,11.5,8.6,11.5,8.6z"/>
			<path class="st0" d="M10.9,8.3L9.1,9.6v1.9l-2.5,2.1V9.7l0.6-0.3l0.4-1.1L6,9.3v0.9L5.2,11V8.9c0,0,0-1.3,0.5-2
				c0.5-0.7,1.2-1.3,2.4-1.3s2,0.7,2.2,1S10.9,7.5,10.9,8.3z"/>
		</g>
		<g>
			<defs>
				<path id="SVGID_5_" d="M11.5,8.6l0.6,0.4c0,0,0.5-2.5-1.3-4.4s-4.4-2-6.3-0.8l1.6,1.9c0,0,0.9-0.7,2.3-0.5
					C10,5.5,10.6,6.4,11,6.9C11.3,7.4,11.5,8.6,11.5,8.6z"/>
			</defs>
			<clipPath id="SVGID_6_">
				<use xlink:href="#SVGID_5_"  style="overflow:visible;"/>
			</clipPath>
			<polygon class="st8" points="9.4,0.1 0.9,14.5 2,14.8 2.5,14.1 10.9,0 9.7,-0.4 			"/>
			<polygon class="st8" points="11.2,0 1.3,16.6 4.8,16.5 4.9,15.5 13.4,1.2 			"/>
			<polygon class="st8" points="13.9,1.2 13.2,1.8 4.2,17.1 5.4,17.1 5.7,15.9 14.4,1.2 			"/>
		</g>
		<g>
			<defs>
				<path id="SVGID_7_" d="M10.9,8.3L9.1,9.6v1.9l-2.5,2.1V9.7l0.6-0.3l0.4-1.1L6,9.3v0.9L5.2,11V8.9c0,0,0-1.3,0.5-2
					c0.5-0.7,1.2-1.3,2.4-1.3s2,0.7,2.2,1S10.9,7.5,10.9,8.3z"/>
			</defs>
			<clipPath id="SVGID_8_">
				<use xlink:href="#SVGID_7_"  style="overflow:visible;"/>
			</clipPath>
			<polygon class="st9" points="9.4,0.1 0.9,14.5 2,14.8 2.5,14.1 10.9,0 9.7,-0.4 			"/>
			<polygon class="st9" points="11.2,0 1.3,16.6 4.8,16.5 4.9,15.5 13.4,1.2 			"/>
			<polygon class="st9" points="13.9,1.2 13.2,1.8 4.2,17.1 5.4,17.1 5.7,15.9 14.4,1.2 			"/>
		</g>
	</g>
</g>
</svg>
